<svg id="Layer_1" data-name="Layer 1" xmlns="http://www.w3.org/2000/svg" viewBox="0 0 512 512"><title>camera-handdrawn</title><path d="M499.49,161.58c-.48.83,5.28,1.86,4.76,2.76-.19.33-7.32-2.73-7.46-2.48-.31.54,1.23.05.94.55-.15.25-3.23,4.08-3.32,4.24-.44.77,4.44,1.42,3.94,2.28,0,.06-1.51-.15-1.56-.07-.51.89,1.47-.36.95.55-.18.32-6.34-3.88-6.55-3.52-.35.61,5.73,2.68,5.46,3.16-.11.19.26,5.79.15,6-.35.61,1.46-.33.95.55-.22.38-7.67-4.68-7.84-4.39-.35.6,2.43.67,2.11,1.22-.17.3,5,7.59,4.78,7.91-.3.52,1.45-.32.95.55-.13.23-.77,5.08-.95,5.39-.52.9,1.31-.07,1,.55-.15.25-6-1.29-6.18-1-.5.87,12.57,6.32,12.15,7-.19.33-7.73-5.08-8-4.55s2,.16,1.56.91c-.09.16-3,4-3.18,4.22-.48.83,11.26,5.56,10.84,6.28-.24.41-8-4.64-8.11-4.39-.42.73,1.36-.16,1,.55,0,.05-.93.84-1,.87-.4.69,1.42-.26,1,.55-.17.29-7.77-1.25-8-.83s3.34.68,2.8,1.62c-.21.37,2,6.91,1.86,7.17-.3.52,11.06,5.34,10.6,6.14-.36.63-10.9-3.14-11.08-2.83-.45.78,7.66,3.55,7.27,4.21s-10.76-4.76-11.05-4.27,5.4,2.49,5.12,3c-.08.14,1.64,5,1.54,5.14-.41.71,1.45-.3,1,.56-.07.12-.89,2.27-1,2.39-.35.61,1.41-.22,1,.56-.12.21-.83,3.4-1,3.63-.52.9,1.29,0,1,.56-.08.13-.83,3.67-1,3.89-.24.42,1.4-.21,1,.56l-1,1.79c-.49.85,1.28,0,1,.56-.09.16,3.63,3.65,3.46,4-.49.85,2,.32,1.6.93s-12.74-2.36-13.07-1.8c-.54.93,15.52,8.26,15.2,8.81s-7.93,1.07-8.16,1.46c-.45.78,1.24.08,1,.56-.18.32,6.1,6.84,5.88,7.22-.37.64,1.47-.1,1.06.62-.13.22-7.74,1.06-7.9,1.35-.47.81,1.37-.13,1,.56-.11.2-.84,3.72-1,4-.28.49,1.35-.09,1,.56-.07.12-.85,3.22-1,3.42-.27.47,1.23.12,1,.56-.15.26-.85,4.5-1,4.7-.47.82,1.21.15,1,.56-.14.24-7.89-3.25-8.05-3-.47.82,12.6,6.17,12.11,7-.1.17-4.91-2.62-5-2.4-.33.57,1.27,0,1,.56,0,.07-1.91-.45-1.95-.39-.45.78,9.27,4.18,8.75,5.07-.15.26-7.59.21-7.78.54-.51.89,1.5-.35,1,.57-.09.15-1.82,5.09-2,5.38-.39.68,6.72,3,6.32,3.66-.17.3-9.92-3-10.25-2.45-.46.8,10.59,4.88,10,5.82-.28.48-11.08-6.28-11.51-5.53-.27.47,2.2.07,1.68,1-.13.23,5,6.1,4.72,6.55-.45.79,1.47-.29,1,.57-.15.27-7,1.86-7.12,2.1-.35.6,5,2.29,4.76,2.76-.07.12-.1,2.42-.19,2.56-.51.88,8.36,4.28,8.12,4.7s-6.33,2-6.54,2.33c-.33.58,1.52-.36,1,.57-.21.37-7.84-1.7-8.07-1.3-.32.56,1.68.08,1.29.75-.21.36,6,5,5.8,5.33-.34.6,1.4-.14,1,.57,0,.08-.95,1.17-1,1.24-.4.7,1.52-.35,1,.57,0,0-1,0-1,0-.48.84,1.44-.21,1,.57l-1,1.87c-.46.79,1.25.11,1,.57-.16.27-8.17-.57-8.39-.18-.35.6,16.27,8.62,15.92,9.22-.13.23-8.28-3.24-8.51-2.84-.36.63,1.29,0,1,.57s4.94,8.25,4.62,8.8c-.45.79,3.43.74,2.89,1.68-.18.31-8.36-.76-8.5-.51-.31.55,1.25.13,1,.57-.14.25-.86,5.34-1,5.57-.24.42,1.38-.1,1,.58,0,0-1-.46-1-.42-.46.81,1.26.11,1,.58-.12.21-.9,4-1,4.16-.37.64,1.34,0,1,.58-.09.15-4,0-4.12.08-.55,1,10.63,5.15,10.19,5.91-.21.36-6.84-4.32-7.07-3.92s4.13,1.63,3.8,2.2c-.13.22-7.57.22-7.73.51-.5.87,7,3,6.53,3.79-.14.24-5-2.94-5.13-2.69-.47.82,11.23,5.59,10.83,6.27-.19.33-8.65-1.62-8.85-1.27-.51.89,7.38,3.67,7.12,4.12-.11.2-6.35-1.26-6.57-.9-.43.75,1.27.1,1,.58-.12.21-.8,5.65-1,6-.36.62,1.5-.29,1,.58-.07.12-.93,2.69-1,2.81-.27.46,1.26.14,1,.58-.11.19,2.19,6,2.06,6.27-.36.62,3.69,1.19,3.28,1.9-.17.3-6.18.53-6.34.8-.45.78,1.26.14,1,.58s4.42,3,4.32,3.17c-.54.94,1.37.12,1.08.62-.14.25-.74,4.43-.81,4.56-.32.56,1.05-.62.52.3,0,0-1.05-.61-1.09-.55-.41.71,2.55.83,2.28,1.32s-12.65-5.72-13-5.2,9,4.34,8.61,5c0,.08-2.85.86-3,1-.25.44,1.42-.13,1,.58-.15.27-.86,5.76-1,6-.32.56,1.52-.3,1,.58-.14.24-.81,5.78-1,6.12-.46.8,1.43-.14,1,.59-.15.26,3.43,3.39,3.34,3.54-.43.75.59-.63.17.1-.13.23-4.4-1.75-4.52-1.55-.51.88,1.33,0,1,.59-.07.12-.95,3.12-1,3.22-.29.51,1.52-.3,1,.59-.15.26-3.72,3.47-3.85,3.69-.48.84,6.66,2.63,6.13,3.55-.13.23-3.15,3.34-3.3,3.6-.43.75,1.38,0,1,.59-.1.18-.3,3-.36,3.1-.27.47,7.59,3.66,7.28,4.22-.15.26-7.68,1-7.85,1.29-.54.94,1-.21.62.36,0,0-.67-.13-.69-.09-.27.46,1.48-.21,1,.59,0,.05-1,.69-1,.74-.35.61,1.29.13,1,.59s-1.35,4.84-1.47,5.05c-.33.57,2,0,1.47.85-.05.09-2.46-1.38-2.51-1.3-.35.61,8.2,3.64,7.72,4.47-.62,1.08-21.57-7.84-22.11-6.91-.94,1.64,20.74,10.14,19.93,11.55-.46.79-23.09-9-23.69-7.94s10.84,4.15,9.92,5.75c-.66,1.14-17.32-11.1-17.95-10-.48.83,22.07,10.87,21.24,12.31-.65,1.12-27.3-12.23-27.94-11.13-.45.78,13.65,6.15,12.89,7.47-.42.72-11.55-4.92-11.95-4.24s9.73,4.27,9.14,5.3c-.14.25-6.86-3.27-7-3-.55,1,12.79,6.14,12.24,7.09s-16.42-10-16.77-9.44c-.81,1.42,13.59,6.92,13.18,7.64s-20.55-6.64-21-5.84c-.71,1.23,1-1.54.07,0-.36.62-15.13-3.37-15.66-2.44-.92,1.61,13,6.51,12.55,7.27-.74,1.29-22.12-8.25-22.48-7.63-.49.85,8.4,3.33,7.74,4.48-.25.43-7.62-3.77-7.83-3.4-.93,1.62,9.33,4.31,8.86,5.13s-17.09-10.61-17.58-9.76,19.31,9.8,18.71,10.84c-.21.36-5.65-3.4-5.87-3-.62,1.08,3.85.59,3.14,1.82-.37.65-13.39-4.47-13.62-4.06-.74,1.28,6.44,2.34,5.84,3.38s-20.63-7.55-21-6.86c-.91,1.58,13.25,5.7,12.4,7.18-.34.6-14.27-8.34-14.71-7.58-.55,1,19.33,9.73,18.7,10.84-.38.65-22.63-9.07-23.37-7.79-.58,1,10,3.9,9.18,5.32-.35.61-18.45-10.28-18.91-9.48-.93,1.62,17.52,8.51,16.81,9.74-.59,1-16.67-7-17.23-6-.87,1.51,14.19,6.81,13.58,7.87s-16.16-7.81-16.74-6.8c-.41.71,12.61,6.15,12.11,7-.93,1.62-23.36-13.38-24.2-11.91-.61,1.05,11.15,5.46,10.72,6.21-.19.32-9.86-.17-10,.15-.91,1.58,9.71,4.31,9.14,5.3-.7,1.21-20.08-13.1-20.87-11.74-.57,1,19.74,10,19.14,11.09-.33.58-14.84-6.5-15.22-5.85-.53.92,2.43-.13,1.77,1-.15.25-5.07-2.86-5.19-2.65-.9,1.57,16.85,8.11,16.14,9.35-.52.91-21-12.3-21.61-11.25s12.31,5.74,11.71,6.78c-.15.27-5.7-2.68-5.89-2.35-.54.95,8.54,2.93,7.67,4.44-.4.69-11-4.39-11.45-3.69-.59,1,12.3,6,11.83,6.85s-18.64-8.88-19.21-7.89,14.26,7,13.71,7.95c-.87,1.52-25.59-9.86-26.15-8.89-.86,1.49,15,7.18,14.36,8.32s-23.71-10.36-24.57-8.86c-.51.89,9.81,4.67,9.37,5.43-.25.43-9-4.64-9.17-4.38-.85,1.47,3-.25,2.11,1.22-.47.81-11.75-6.54-12.2-5.77-.9,1.56,23,11.18,22.06,12.78-.75,1.3-22.3-7.63-22.74-6.88-.67,1.17,1.06-1.44.17.1-.41.72-12.58-1.28-12.81-.87-.78,1.36,14,6.24,13.2,7.65-1.17,2-31.7-14.8-32.24-13.87-.74,1.28,22.91,11.7,22.23,12.88-.43.75-14-6.4-14.49-5.52-.72,1.26,10.94,4.25,10,5.81s-28.16-12.24-28.63-11.41,20.24,10.15,19.56,11.33c-.78,1.36-19.89-11.26-20.48-10.24s8.92,3.6,8.24,4.77c-.28.49-8.95-.41-9.13-.1-.74,1.29,10.29,4.54,9.67,5.61C283.73,448.18,264,440,263.4,441c-.89,1.55.91-.81.33.19-.74,1.28-23.22-9-23.79-8-.87,1.52,21,10.89,20.42,11.83s-23.54-11.55-24.19-10.42,13.38,6.8,13,7.52-15.15-7-15.7-6.08c-.87,1.51,11.56,5,10.83,6.27,0,.07-2-1.14-2.11-1-.79,1.37,7.66,2.3,6.74,3.9-.49.86-29.84-12.47-30.42-11.47s25,12.34,24.08,14c-.55,1-20-7.15-20.49-6.33-.93,1.62,7.3,2.6,6.59,3.82S207,433.46,206.43,434.45c-.67,1.16,18.18,9.39,17.69,10.25s-22.92-8.06-23.33-7.36c-.86,1.5,11.72,5,11,6.35-.93,1.62-26-10.86-26.87-9.29-.77,1.33,14.61,6.64,13.82,8-.32.55-9.7-1.74-10-1.27-.85,1.48,9.47,3.61,8.66,5-.28.49-14.89-8.32-15.4-7.43-.66,1.14,3.36.57,2.76,1.6-.45.77-16-6.61-16.22-6.14-.44.76,10.11,3.87,9.25,5.36-.35.62-18.31-5.89-18.91-4.85S179.8,445,179,446.36c-.26.45-13.57-7.91-14.1-7s10.66,4.12,9.77,5.66c-.45.79-21.85-9.75-22.69-8.31s10.37,4.23,9.6,5.56c-.45.79-19.68-9.84-20.14-9.05-.9,1.57,12.62,5.74,11.94,6.92-.13.22-4.33.25-4.42.39-.72,1.25,11.69,5.1,11,6.36-.63,1.09-19-9.34-19.51-8.49s15.7,7.06,14.82,8.59c-.48.84-15.26-8.15-15.75-7.29s6.33,1.54,5.41,3.13c-.26.46-15-5.92-15.31-5.43-.95,1.65,7.42,3.08,6.89,4-.1.18-5.92-2.05-6.12-1.7-.79,1.37,11.51,5.22,10.89,6.31s-19.35-7.07-20-5.86c-.9,1.57,7.92,2.5,7,4.07-.48.83-15.44-3.93-15.73-3.43-.57,1,3.28.33,2.6,1.51s-19.41-5.61-19.77-5c-.47.82,6.72,2.52,6.12,3.55-.15.27-5.88-2.68-6-2.46-.42.74,12.41,6.1,11.94,6.92-.75,1.31-24.78-11.13-25.52-9.84-.53.93,19.42,10,18.88,10.94S79,433.25,78.5,434.18c-.82,1.42,20.32,10.65,19.83,11.49-.72,1.25-24.5-13.41-25.35-11.93s15.39,8,15,8.68c-.76,1.33-22.17-9-23-7.62-.66,1.15,10.43,4.16,9.62,5.57-.19.33-5.65-3.29-5.81-3-.63,1.09,11.89,4.71,11,6.35-.35.61-17.16-5.71-17.54-5.06-.47.83,12.61,5.55,11.85,6.87-.54.94-13.24-8.39-13.72-7.56-.92,1.59,9.34,4.09,8.77,5.08-.36.63-19.8-7.43-20.49-6.23-.46.8,14.23,7.11,13.74,8-.34.58-13.19-8.15-13.7-7.26C48,438.63,62,444.21,61.56,445s-16.31-7.93-16.92-6.86,3.9.49,3.14,1.82c-.32.56-15.62-3.37-16.07-2.59-.78,1.36,8.27,2.83,7.42,4.3-.35.61-17.13-7.64-17.58-6.87-.88,1.52,20.73,10.38,20,11.6-.35.61-15-9.07-15.45-8.33-.76,1.32,13.28,6.67,12.84,7.44-.62,1.07-16.14-10-16.5-9.35-.6,1,11.8,5,11,6.37" fill="none" stroke="#999" stroke-linecap="round" stroke-linejoin="round" stroke-width="1.16"/><path d="M347.52,60.17c0,.05,3.35,1.91,3.34,1.93-.14.24-4-2.09-4-1.93s4.4,2.42,4.34,2.51c-.36.63-13.81-3-14.12-2.49-.57,1,7.81,3.45,7.34,4.25-.09.15-4,3.66-4.11,3.83-.9,1.56,19.13,9.32,18.37,10.64S327.3,60.6,326.22,62.48c-.87,1.52,21.33,10.29,20.44,11.84-.41.71-21.93-11.4-22.43-10.53-1.09,1.89,39.22,19.45,37.81,21.91-1.8,3.12-52.13-27.5-53.47-25.19-.46.8,17.26,8.24,16.5,9.56-.27.48-11.39-3.78-11.72-3.2-.8,1.38,8.5,3.09,7.71,4.47-.34.6-16.08-6.16-16.66-5.15-.94,1.64,12.2,5.19,11.39,6.6s-27.62-12.23-28.58-10.55c-.86,1.49,16.67,7.82,15.87,9.2-.27.46-6.87-4.08-7.09-3.68-.76,1.32,6.21,2.2,5.6,3.25-.46.8-19.38-6-19.84-5.15-.6,1,3.22.82,2.77,1.6-.58,1-16.2-5.8-16.53-5.23-.71,1.23,19.83,9.38,18.92,11-.52.91-26.41-12.83-26.87-12-.58,1,24.27,11.94,23.36,13.53-.72,1.25-27.38-14.16-28.31-12.54-.83,1.45,15.39,6.9,14.52,8.41-.56,1-18.62-8.91-19.12-8-.75,1.3,21,10.92,20.46,11.86-.82,1.42-20.23-12.28-20.76-11.35s7.55,2.27,6.64,3.85c-.44.77-21.29-7-21.81-6.06s15.22,6.67,14.3,8.28c-.43.75-16.43-4.56-16.8-3.9-.89,1.54,12.74,5.26,11.82,6.85-.39.68-19.42-9.48-19.93-8.6-.76,1.33,19.2,10.06,18.74,10.86-.8,1.39-24.27-10-25-8.64-.43.74,16.34,8.37,15.86,9.19s-17.52-9.79-18.13-8.73c-.44.77,15.8,7.48,15.07,8.73S205.43,62,205,62.81c-.85,1.48,15.81,7.47,15.08,8.74-.63,1.1-22.18-10.39-22.78-9.34s17.14,8.92,16.71,9.68c-.82,1.42-22.29-12.58-23.12-11.13-.57,1,19.17,9.21,18.35,10.63-.28.48-9.94-4.77-10.17-4.39-.91,1.57,4.1.87,3.45,2-.32.57-11.8-5.47-12.13-4.88-.64,1.11,10.9,4.8,10.25,5.94-.81,1.4-21.2-10.36-21.82-9.27-.74,1.29,12.5,5.23,11.63,6.74-.66,1.15-18.63-5.62-19.23-4.58-.88,1.54,15,7,14.25,8.26-.34.59-14-2.83-14.35-2.22-.56,1,1.66-1.2.72.42-.16.29-7.57-3.31-7.85-2.82-.75,1.3,11.9,5.29,11.2,6.49s-21.73-10.17-22.38-9c-.54.95,8.06,3.64,7.62,4.41-.35.61-14.85-5.1-15.37-4.2-.7,1.22,6,1.79,5.29,3.06,0,.07,1.12,1,1.07,1.07-.49.85,5,1.25,4.31,2.5-.45.78-13.86-8.24-14.12-7.79-.75,1.31,15.48,7.19,14.71,8.52-.24.41-9.64-1.3-9.88-.89s.68-.34.37.21c0,0-.38-.17-.39-.16-.29.51.63-.48.27.16-.21.36-9-2.13-9.23-1.7S152,76.9,151.66,77.48c-.17.29-8.88.41-9.15.88-.42.73,4.13,1.83,3.89,2.25-.47.81-12.9-3.37-13.37-2.55s14.57,7.7,14.25,8.26c-.57,1-15.72-5.17-16.16-4.4-.32.55,14.49,7.83,14.25,8.26s-16.24-4.18-16.5-3.73,14.53,7.77,14.25,8.26c-.09.16-3.59-.84-3.66-.72-.45.78,3.06.76,2.62,1.52-.3.51-15-5.37-15.41-4.64-.25.44,14.64,7.57,14.25,8.26s-9-2.62-9.25-2.22,5.77,2.65,5.47,3.17-13.34-3.31-13.77-2.56c-.23.41,14.52,7.78,14.25,8.26-.43.74-14.39-5.49-14.73-4.89s10.68,5.21,10.26,5.95c-.27.46-12.1-4.56-12.4-4-.44.76,14.58,7.68,14.25,8.26-.2.34-9.86-4.22-10-3.92s7.51,3.48,7.13,4.13c-.28.48-12.08-6.89-12.5-6.16s14.51,7.8,14.25,8.26c-.49.86-15.49-5.63-15.95-4.84-.32.55,14.55,7.73,14.25,8.26-.45.79-14.23-8.21-14.54-7.68-.21.37,14.68,7.51,14.25,8.26-.14.24-4.9-2.89-5.06-2.6-.27.46,3.21,1.11,2.89,1.68-.47.81-13.48-4.43-13.73-4-.41.71,14.59,7.66,14.25,8.26s-14.08-2.8-14.32-2.39c-.44.77,11.94,6.06,11.57,6.7-.25.43-13.89-7.09-14.31-6.35-.31.54,10.52,5.49,10.26,5.95s-9.78-.44-10-.06c-.47.82,7.83,3.58,7.42,4.3-.28.49-11.73-2.46-12.08-1.85s14.7,7.47,14.25,8.26c-.14.24-7.71-.5-8,0-.46.81,3.3.92,2.87,1.66s-11.12-3.73-11.45-3.16.41-.55.07,0c-.14.25-2.68,3.17-2.82,3.42-.33.57,14.56,7.71,14.25,8.26-.51.89-15.38-5.86-15.8-5.14-.3.51,14.71,7.46,14.25,8.26s-14.16-8.28-14.72-7.3c-.22.39,14.5,7.81,14.25,8.26s-9.74-4-10-3.53c-.44.76,1.85.48,1.6.92-.43.76-12-4.28-12.24-3.78-.46.8,5.16,1.72,4.61,2.67-.36.62-11.91-2-12.16-1.52C87,145.38,103,151,102.12,152.59c-.46.79-17-4.13-17.44-3.43-.84,1.46,7.11,1.95,6.17,3.58-.72,1.26-21.41-7.41-21.77-6.77-.59,1,11.6,5,10.85,6.29-.58,1-15.13-7.17-15.54-6.45-.72,1.25,18,9.26,17.51,10.15-.61,1.07-30.84-14.65-31.74-13.08-.59,1,22.1,10.95,21.3,12.34-.56,1-24.47-13.22-25.19-12-.84,1.45,15.16,7.52,14.62,8.47-.21.37-6.68-2.95-6.92-2.53-.91,1.59,8.46,2.88,7.58,4.39-.75,1.31-29.81-13.53-30.84-11.74C30.05,143,47,150.2,46.57,151c-.27.46-8.5-1.31-8.79-.81-.51.88,4.27.73,3.52,2-.26.45-6.66-3.76-6.92-3.31-.8,1.39,11.05,4.35,10.17,5.89S15.73,141.77,15,143s10.93,4.76,10.25,5.94c-.5.86-16.43-8.18-17-7.25C7.53,143,30,152.45,29.23,153.78c-.34.59-13.38-3.49-13.6-3.12-.37.65,9.21,3.55,8.44,4.89-.23.4-13.64-3.52-13.86-3.15-.46.8,1.31.09,1,.59-.12.22-.92,5.62-1,5.79-.47.81,1.47-.19,1,.59,0,0-1-.25-1-.19-.45.78,1.45-.16,1,.59-.24.42-7.32-1.56-7.5-1.25-.32.56,4.44,1.92,4.16,2.41-.1.18,2.37,2,2.32,2.1-.25.44,1.56-.34,1,.59-.14.24-6.42-2.11-6.62-1.78-.5.86,4.42,1.68,4,2.34-.13.23,3.64,2.61,3.51,2.84-.44.76,2.33.73,2.06,1.19-.08.14-1.52,3.33-1.6,3.46-.46.8,5.51,2.15,5.06,2.93S4.8,170.67,4.46,171.26c-.44.77,6.93,3.24,6.6,3.82-.11.19-6.37,1-6.49,1.26-.38.66,10.51,5.23,10.14,5.88-.12.2-5.79-3.41-5.9-3.21-.49.85,7.43,3.46,7.07,4.1s-12.59-7.77-13.08-6.9c-.35.61,14.89,7.47,14.39,8.34-.16.27-6.81,1.4-6.94,1.64-.29.5,1.5-.24,1,.59-.12.21-.94,3.82-1,4-.51.89,1.27.16,1,.59-.16.27,4.09,4.92,3.89,5.27-.31.54,3.86,1.17,3.4,2-.26.45-8.12,0-8.31.27-.51.89,1.3.11,1,.59,0,0-1,.44-1,.48-.3.51,1.36,0,1,.59-.14.24-.95,3.94-1,4.07-.24.41,1.35,0,1,.59-.14.24-4.9-.5-5-.3-.35.61,2,.25,1.58.91-.07.13-1.71,1.86-1.75,1.93-.48.83,12.81,6.19,12.28,7.12-.1.17-2.62.83-2.7,1-.34.58,2.36.26,1.88,1.09-.33.58-11-1-11.3-.55-.47.82,11.12,5.62,10.77,6.24-.13.22-3.64,2.47-3.79,2.73-.31.53,1.66-.21,1.15.67-.19.34-4,3.63-4.11,3.87-.3.53,1.27.18,1,.59s-6.54-.28-6.66-.07c-.46.8,9.74,5,9.44,5.47,0,.06-1.88.54-1.93.62-.47.82,4.71,2,4.39,2.55-.15.25-6.06,1.55-6.26,1.9s1.48-.2,1,.59c-.14.24-.91,4.6-1,4.8-.52.91,1.49-.22,1,.59-.14.24-.85,5.34-1,5.63-.49.84,1.5-.22,1,.59-.17.29-8.25-3.94-8.45-3.6-.5.88,7.6,3.77,7.33,4.25,0,.07.13,1.32.09,1.38-.37.64,1.31.11,1,.59-.19.33-5,1.27-5.13,1.54-.37.64,2.45.23,1.93,1.12-.09.16,2.31,4.44,2.17,4.67-.48.83,1.39,0,1,.6-.21.36-7.49.09-7.67.4-.41.72,7.12,3.37,6.79,3.93,0,0-.11,1.3-.14,1.35-.42.73,1.57-.35,1,.6,0,.06-2.18.08-2.24.19-.45.79,5.63,2.7,5.39,3.12s-10-5.88-10.37-5.18,8.68,4.19,8.32,4.82c-.16.28-7-1.93-7.27-1.5-.52.9,6,2.54,5.57,3.23-.1.17-.31,4-.41,4.2-.3.52,1.45-.14,1,.6-.09.16.88,5.37.79,5.53-.25.44,3.47,1.33,3.18,1.84s-9-3-9.38-2.43c-.52.9,1.77,0,1.34.78-.09.16,3.16,4.62,3,4.82-.44.76,1.45-.13,1,.6,0,0,.86.74.84.78-.54.94,5.22,2.41,5,2.87-.17.3-6.6-.63-6.82-.24-.43.74,1.57-.34,1,.6-.14.25,2.76,5.53,2.58,5.85-.29.51,3.11.84,2.69,1.56-.19.32-7.24-3.73-7.52-3.25-.45.78,5.48,2.59,5.23,3-.14.25-3.91,2-4,2.13-.4.7,1.41-.06,1,.6-.22.38-7.09,1-7.23,1.26-.25.44,2,0,1.53.89-.14.25,4.81,5.72,4.67,6-.47.81,1.44-.12,1,.6-.07.12,1.57,1.33,1.53,1.41-.3.53,5.11,2.13,4.75,2.75-.55,1-14.31-7.76-14.69-7.11-.26.46,11.33,5.56,10.89,6.31-.07.12-3.45,1.14-3.51,1.24-.52.9,1.37,0,1,.6,0,.06-1,1.12-1,1.18-.29.5,1.41-.07,1,.6,0,.06,1.68,1,1.61,1.11-.45.79,2.08.3,1.69,1-.09.15-4.16,3.52-4.33,3.81-.28.49,1.28.17,1,.6-.13.22,1.88,5.65,1.67,6-.35.6,2.31.08,1.77,1-.23.4-7.29-.82-7.49-.48-.4.69,2.37.35,1.93,1.12-.15.26-5.52-.13-5.64.08-.28.49,4,1.67,3.74,2.17-.12.21,5.81,4.22,5.62,4.56-.45.79,4.63,1.62,4.17,2.42-.24.42-11.71-4.57-12-4.06-.38.67,6,2.82,5.73,3.32l-.51,1c-.45.78,1.49-.21,1,.6-.06.1-1,2.12-1,2.2-.47.82,1.29.14,1,.6,0,.06-1.65.92-1.71,1-.34.6,6.17,2.78,5.83,3.38-.18.31-5-2.48-5.15-2.29-.29.51,1.49-.19,1,.6-.18.31-6.22-3.35-6.41-3s.88-.33.52.3c-.16.28,5.2,7.73,4.86,8.31s1.29.14,1,.6,4.33,6.37,4.2,6.59c-.48.84,2.82.69,2.41,1.4-.21.36-9.57-4.57-9.88-4-.44.76,7.73,3.44,7.28,4.22-.1.17-2.73,4.37-2.84,4.55-.42.73,1.78.24,1.44.83-.12.2-3.51,1-3.64,1.23-.34.59,1.37,0,1,.6-.12.21-.88,4.78-1,5-.53.93,1.46-.14,1,.6,0,.06-1,.51-1,.58-.35.61,1.34.07,1,.6-.09.15-2.54,3.83-2.7,4.12-.48.83,6.28,2.41,5.75,3.33-.13.22-4-1.69-4.08-1.54-.42.73,1.56-.31,1,.6,0,.06-1,.45-1,.51-.33.58,1.57-.33,1,.6-.14.24-2.46,4.53-2.57,4.72-.53.91,9.23,4.31,8.78,5.09-.24.42-12.62-5.86-12.84-5.48-.54.94,13.6,7,13.22,7.66-.26.45-7.41,1.11-7.62,1.48-.5.87,1.58-.36,1,.6-.1.17-4.56,1-4.7,1.22-.48.83,10.67,5.1,10.2,5.91-.32.56-9.2-4.89-9.45-4.46-.36.63,10.05,5.08,9.73,5.64-.19.33-6.65-2.21-6.82-1.92-.49.85,1.31.13,1,.6,0,0-1,.29-1,.33-.44.77,1.38,0,1,.6-.17.3-4.18,3-4.36,3.37-.35.6,3.46,1,3,1.74-.14.24-6.1-4-6.33-3.59-.4.7,14.87,7.86,14.55,8.43s-7.66-4.58-7.89-4.17c-.52.91,1.34.08,1,.6-.2.35-5.81-2.24-6-2-.51.88,8.79,4,8.32,4.82-.12.21-3.26,1-3.39,1.18-.37.64,1.45-.11,1,.6,0,0-1-.55-1-.48-.41.71,1.39,0,1,.6-.09.15,1.45,3.32,1.36,3.48-.4.69,1.64-.15,1.17.68-.32.56-9.15-.89-9.46-.35-.44.76,5.94,2.52,5.55,3.21-.23.39,5.91,8.54,5.66,9-1,1.68,19.45,8.93,18.44,10.68-.56,1-25.86-16.41-26.64-15.06-1.2,2.08,15.87,7.76,15.25,8.84-.38.66-11.91-2.39-12.23-1.83-.79,1.38,16.66,8.69,16.25,9.41s-19-7.74-19.67-6.61c-.29.51,4.65,1.5,4.14,2.4-.18.31-8.26-.53-8.39-.31s9.73,5,9.45,5.48S3,444.88,2.84,445.19c-.08.14,5.17,2.8,5.08,2.95s-5-2-5.08-1.79c0,0,3.12,1.76,3.1,1.8" fill="none" stroke="#999" stroke-linecap="round" stroke-linejoin="round" stroke-width="1.16"/><path d="M349.81,79.91c-.4.69,14.06,7,13.59,7.87-.25.44-13.38-2.81-13.7-2.25-.77,1.34,13.52,6.94,13.14,7.61-.18.31-7.43.45-7.63.8-.85,1.47,9.21,4.21,8.73,5.06-.39.69-12.17-2.91-12.49-2.35-.44.77,22.14,11.13,21.4,12.4-.28.49-12.29-3.68-12.7-3s13.23,6.25,12.62,7.31c-.31.53-8.55.35-8.73.67-.54.93,15.87,7.75,15.24,8.83-.3.52-16.85-6.13-17.32-5.3-.79,1.37,19.33,10.29,18.94,11-.2.35-7-2.64-7.29-2.18-.49.84,7.95,3.09,7.3,4.23-.13.22-7.95-2.21-8.23-1.71-.41.71,9.15,4.32,8.73,5.06-.3.52-9.49-3.16-9.67-2.85-.78,1.35,8.43,3.05,7.64,4.43-.21.36-7.12-3.82-7.31-3.49-1,1.73,36.72,19.22,35.83,20.76-.61,1.06-20.65-6.22-21-5.55-1.1,1.91,5.64,1.25,4.77,2.76-.38.66-16.09-8.59-16.5-7.88-.7,1.22,16.07,7.93,15.47,9-.41.72-12.2-1.85-12.4-1.5s9.84,5.21,9.62,5.58-7.43-.93-7.66-.53c0,0,3.41,1.91,3.38,2" fill="none" stroke="#999" stroke-linecap="round" stroke-linejoin="round" stroke-width="1.16"/><path d="M502.18,141.64s3.11,1.77,3.1,1.8c-.27.46-10.19-2.27-10.46-1.8-.16.27,10.69,5.67,10.46,6.06s-13.35-4-13.79-3.24c-.33.57,11.06,5,10.44,6s-18.92-9-19.62-7.81,20.19,10.62,19.72,11.43-23.85-9.36-24.71-7.87c-.67,1.16,18,7.88,16.87,9.78-.87,1.5-22.8-12.23-23.37-11.25s16.25,8.07,15.67,9.08-26.25-13.58-27.13-12.05c-.72,1.26,26.05,13.62,25.42,14.73s-16.39-10-16.81-9.25c-.81,1.4,11.56,5.22,10.92,6.33-.37.65-11-5.17-11.16-4.85-.5.86,6.77,2.4,6.11,3.54C473,153.7,451.14,144,450.57,145c-.85,1.47,19.5,9.12,18.56,10.76-.31.54-14.87-8.3-15.19-7.74-.83,1.44,9.8,3.67,8.93,5.18-.61,1.07-15.36-10.07-16-9s12.53,6.21,12.08,7c-.32.56-11-1.32-11.27-.82-.65,1.14,11.15,4.66,10.37,6-.39.67-12.12-6.42-12.34-6-.9,1.57,7.34,2.91,6.76,3.92s-19-8.51-19.62-7.41c-.83,1.44,3.73.49,3,1.74-.43.75-16.12-7-16.65-6-.68,1.19,20.91,10.82,20.35,11.79-.45.78-19.1-10.33-19.46-9.7s16.62,7.64,15.76,9.13-22.68-12.33-23.22-11.39,13.55,6.14,12.81,7.42c-.09.15-3.41.1-3.5.27-.7,1.22,11.66,5.59,11.15,6.46-.62,1.08-27.3-14-27.78-13.14s10.63,4.06,9.72,5.63c-.47.81-16.71-7.87-17-7.35-.56,1,23.64,11.79,22.82,13.22s-24.1-12.62-24.88-11.27c-.5.86,17.7,8.77,17.06,9.88-.5.86-19.56-10.41-19.95-9.74-.86,1.49,13.91,6.78,13.36,7.74" fill="none" stroke="#999" stroke-linecap="round" stroke-linejoin="round" stroke-width="1.16"/><path d="M315.52,205.64c-.8,1.39,36.3,18.81,35.34,20.48-.36.63-18.83-6.3-19.3-5.49-1,1.74,20,10.43,19.5,11.3-.17.29-7,.74-7.17,1.07-.92,1.61,1.65-.27,1.12.65-.18.31-5.23,1.52-5.37,1.77-.42.74,21.36,10.74,20.65,12-.26.45-11.41-3.1-11.79-2.44s11.13,5.17,10.58,6.13c-.25.43-6.73,1.49-6.88,1.75-.44.77,11.91,5.72,11.4,6.61-.25.43-14.35-4.51-14.75-3.81-.62,1.08,14.73,7.82,14.43,8.36-.09.15-3.21-.09-3.33.11-.37.65,2.79.46,2.29,1.33-.06.11-3.91.47-4.05.71-.3.52,3.3,1.19,3,1.73-.15.26-5.08-.41-5.17-.25-.56,1,2.32,0,1.75,1,0,.08-1.72-.35-1.76-.28-.35.6,7.18,3.45,6.87,4-.16.28-2.17,5.14-2.27,5.32-.57,1,2.38.34,1.94,1.12-.16.28-7.21-2.9-7.38-2.6-.41.72,5.89,2.6,5.54,3.21-.21.36-5.79,2.1-5.9,2.27-.28.49,13.56,7.19,13.27,7.69-.2.34-7.37-.89-7.6-.49-.33.57,7.17,3.07,6.7,3.88-.25.44-9.48.57-9.74,1s10.52,5,10.07,5.83c-.14.25-7.87-.64-8.11-.22-.4.7,1.25-.08.9.52-.13.23-4.92,1.21-5,1.41-.3.51,3.48,1,3,1.75,0,0-.19.57-.21.6-.29.5,8.68,4.47,8.44,4.89-.39.68-12.41-4.84-12.67-4.39-.49.85,15.36,8.05,15,8.69s-10-5.58-10.29-5.13,8.87,4,8.38,4.86c-.2.34-7,1.26-7.21,1.64s5.45,2.32,5.09,2.95c-.08.14-.89,3-.94,3.06-.45.79,3.69,1,3.21,1.86s-15.66-3.89-15.9-3.46S366,326.27,365.62,327c-.31.53-14.27-3.51-14.58-3s.45-.39.17.1c-.05.09-2.33,1.92-2.44,2.11-.26.45,15,7.69,14.55,8.43s-14.22-8.84-14.69-8c-.33.58,14.83,7.88,14.52,8.42s-7.76-4.35-8-3.85,6.52,3.18,6.26,3.63-13.11-6.64-13.53-5.92,14.8,7.61,14.39,8.34-13.95-7.13-14.19-6.72c-.33.57,5,1.87,4.56,2.64-.19.33-6.48.79-6.63,1-.34.59,14.29,7.79,14.08,8.16-.35.6-15.88-4.41-16.47-3.4-.41.72,14.65,7.8,14.35,8.32-.43.76-14.83-7.26-15.2-6.62-.25.43,14.59,7.73,14.28,8.27-.5.86-13.83-9-14.34-8.15S357.36,348.35,357,349c-.27.48-14.76-7.18-15.22-6.38s14.39,7.87,14.19,8.22c-.39.67-11.18-3.86-11.4-3.48-.34.58,6.27,3.1,6,3.5s-11-4-11.46-3.28,14.54,7.36,14.08,8.16-16.72-4.31-17.06-3.73,14.51,7.9,14.29,8.28-11.61-5.67-11.95-5.08c-.45.78,3.36,1.19,3,1.76-.14.24-4.5,1.21-4.65,1.48-.34.6,7.64,3.51,7.25,4.2-.15.25-6.3-3.43-6.45-3.18-.46.8,2.58.86,2.31,1.34s-9.8-.63-10-.27,14.72,7.67,14.35,8.32c-.28.48-10.89-1-11.22-.38s6.24,3,6,3.46c-.5.88-16-3.86-16.51-3-.21.37,14.82,7.56,14.38,8.33-.23.41-14.48-4.82-14.87-4.14-.26.46,4.28,1.48,3.85,2.23-.09.16-1.88,2.31-1.94,2.4-.34.59,8.09,3.65,7.64,4.43s-17.44-6.19-17.84-5.49c-.25.43,15.19,8,14.83,8.59s-15.59-8.21-15.92-7.63,15.22,7.94,14.84,8.6-15.61-8.44-16.08-7.62,15.17,8.24,14.93,8.65-9.28-3.29-9.56-2.8c-.45.77.51-.53.16.09-.2.35-10.5-2.14-10.69-1.8-.4.69,13.6,6.92,13.18,7.64s-10.38-4.86-10.77-4.18c-.24.41,2.69.92,2.41,1.4,0,0,.19.59.18.61-.44.77.79-.61.33.19-.07.12-3.77.7-3.9.93-.25.44,9.09,4.28,8.67,5-.25.43-9.57-3.73-9.93-3.12-.47.82,1.09-.33.68.39-.11.18-3.58,1.4-3.68,1.57-.47.82,5.61,2.61,5.34,3.09s-17.15-4.37-17.54-3.69c-.28.49,12.84,6.28,12.34,7.15-.4.7-16.39-7.57-17-6.52-.44.77,2,.34,1.66,1-.2.36,1.48,5.82,1.32,6.09-.27.47,4.11,1.32,3.66,2.12-.32.56-12.82-4.13-13.13-3.57-.54.94,14.09,6.84,13.52,7.84s-19.36-9.31-20.06-8.09c-.47.82,9.53,4.06,8.89,5.15-.16.28-8.13-.59-8.35-.21-.51.89,6.23,2.21,5.62,3.26-.33.58-15.51-6-16-5.19-.6,1,2.73.13,2.1,1.22,0,0,.52.34.5.37-.49.86,11.31,5.85,11,6.38-.65,1.13-17.61-5.38-18.1-4.52-.63,1.09,4.33.85,3.62,2.1-.27.46-9.69-.16-9.93.27-.7,1.21,2-.76,1.18.68-.18.32-11.58-1.11-12-.39s2.5-.64,1.59.92c-.38.66-13.33-6.1-13.78-5.32-.68,1.18,15.36,6.54,14.34,8.31s-27.86-15-28.39-14.09,29.9,14.7,28.77,16.67C243.1,417,200.9,389,199.47,391.52c-1.18,2.05,33.36,16.14,32,18.54" fill="none" stroke="#999" stroke-linecap="round" stroke-linejoin="round" stroke-width="1.16"/><path d="M300.21,181.14c-.33.58,8.44,4,8,4.66-.51.88-18.58-7.71-19.1-6.8-1.06,1.85,43.33,21.59,41.82,24.23s-59.35-34.52-61.46-30.86C268,175,342.66,207.92,339.71,213c-2.41,4.2-78.19-48.83-81.25-43.52s87.7,46.56,85.86,49.75c-2.07,3.6-88.53-52.75-91.94-46.82-.61,1.05,14.74,6.25,13.75,8-.73,1.27-19.41-10.06-19.88-9.23-.68,1.19,20.66,10.38,20,11.57s-29.85-16-30.86-14.21c-.74,1.29,26.68,13.94,26,15.08s-16.91-10.31-17.34-9.56c-.82,1.43,12,5.44,11.34,6.57-.38.66-11.14-5.27-11.33-4.94-.49.85,6.55,2.29,5.9,3.42s-20.21-6.69-20.72-5.81c-.72,1.25,15.9,7.36,15.1,8.75-.23.4-11.06-5.89-11.29-5.48-.69,1.21,6,1.76,5.23,3-.47.81-11.71-7.63-12.17-6.83-.57,1,8.7,4.16,8.32,4.82-.16.28-4.69,2.66-4.84,2.91-.5.87,5.56,1.84,5,2.88-.19.33-6.17-2.71-6.28-2.52-.68,1.18,1.34-.23.9.52s-12.51-4.23-12.91-3.52c-.6,1,4.76,1.55,4.24,2.46-.37.64-13.84-5.46-14.3-4.67s13.79,7.08,13.4,7.76c-.26.45-11.27-5.44-11.48-5.08s9.09,3.89,8.49,4.92c-.48.83-14.12-6.88-14.45-6.31s5.46,2,5,2.88c-.2.35,6.25,5.39,6,5.79-.46.8,3.4,1.21,3.07,1.78s-17.24-7.71-17.53-7.2,2-.2,1.39.81c-.18.31-6.73-1.65-6.85-1.46-.36.62,14.8,7.37,14.28,8.27s-13.5-5.65-13.92-4.92c-.31.53,8.53,4,8.13,4.71-.26.46-11.37-2.84-11.58-2.48-.51.89,4.26,1.71,3.94,2.28-.17.3-7-3.56-7.19-3.21-.54.95,2.91.81,2.53,1.47-.12.2-3.85-.52-4-.32-.54.94,10.87,5.18,10.38,6-.27.46-9-.26-9.28.16-.36.63,1.16,0,.89.51-.09.15-5,2.24-5.14,2.55-.36.63.68-.32.37.22-.15.26-4.1,2.38-4.19,2.53-.33.58.63-.51.25.14-.1.17-3.18,1.9-3.28,2.07-.33.57.61-.78.12.07-.27.47-8.57-1.89-8.8-1.49-.39.68,5.9,2.39,5.45,3.16-.06.11-3.58-1-3.7-.8-.33.57.85-.37.48.28-.19.33-5.44-1.8-5.57-1.57-.29.51,15.21,7.92,14.82,8.59-.6,1-18.5-5.8-19.13-4.72-.38.66,15.27,7.71,14.78,8.56s-15.09-3.17-15.52-2.42,5.18,2.11,4.79,2.78c-.28.48-10.48-2.09-10.69-1.72s14.64,8,14.42,8.36c-.36.63-14.7-8.39-15.26-7.41-.21.36,14.89,7.56,14.43,8.36-.36.63-14.9-2.93-15.31-2.23-.27.48,2.47.66,2.14,1.24-.11.2-4.65-1.1-4.8-.83-.42.74,7.33,3.4,7,4-.22.39-10-2.15-10.26-1.73s14.6,7.5,14.18,8.22-15.29-6.83-15.78-6c-.23.41,14.46,7.88,14.25,8.26-.33.57-11.2-4.6-11.62-3.87s8.39,4.14,8.08,4.68c-.2.35-8.7-.34-8.93.07-.45.79,1.33-.26.88.51-.14.25-5.79.5-5.92.72-.25.43,9.19,4.48,8.82,5.11s-11.81-5.09-12-4.73c-.43.75,14.39,7.86,14.18,8.22-.3.52-16.14-4.59-16.6-3.81-.21.36,14.6,7.86,14.34,8.31s-11.11-5.51-11.41-5c-.42.72,7.27,3.49,7,4s-12.23-1.65-12.49-1.19c-.42.74,14.45,7.77,14.19,8.22s-9.63-6.47-10-5.76,7.27,3.3,6.87,4-11.34-5.57-11.55-5.19,14.6,7.68,14.26,8.26c-.55,1-15.33-5.48-15.75-4.74s14.89,7.69,14.48,8.39-13.47-4.38-13.89-3.67,7.5,3.26,7,4.08c-.28.49-8.35-2.06-8.6-1.62s5.76,2.55,5.42,3.14c-.06.1-3.15-1.32-3.22-1.2-.27.47,3.73,1.6,3.49,2,0,.08-.26,2.13-.32,2.24-.32.56,5.35,2.09,4.92,2.85-.35.61-13.27-2.64-13.71-1.87s15.32,8,14.94,8.65c-.26.45-14.83-4-15.21-3.35-.25.43,12.59,6.76,12.36,7.16-.42.73-12-7.13-12.27-6.6s13.92,7,13.46,7.8c-.34.59-14.21-7.4-14.5-6.9s15.24,7.85,14.82,8.59c-.24.42-8.09,1.05-8.23,1.3-.26.45.6-.39.28.16-.07.12-1.13,3.77-1.2,3.91-.49.86,6.48,3.05,6.18,3.58-.11.19-5.64-1.7-5.84-1.37-.41.71.83-.42.44.25-.14.24-.6,4.59-.73,4.82-.48.84,1.2-.34.75.44,0,0-.75-.25-.77-.22-.37.65,1.16-.2.78.45-.12.21-.9,3.76-1,4-.37.64,1.6.37,1.36.79,0,0-1.23,1.08-1.28,1.17-.25.43,1.73.27,1.41.82-.16.29-5.8,2.7-6,3-.54.94,14.14,6.89,13.58,7.87-.14.25-1.41,5.27-1.57,5.54-.38.66,1.83-.1,1.33.77-.19.34-9.66,0-9.91.46-.38.66,13.71,7.27,13.42,7.78s-6.52-2.08-6.72-1.73c-.53.92,3.45.91,3,1.73-.11.19-4.67-.31-4.82-.05-.47.82,9.38,4.35,8.91,5.16-.06.1-3.36-.88-3.41-.79-.67,1.17.65-.88.11.06-.37.64-12.48-6.73-12.79-6.19-.52.91,12.15,6,11.68,6.77-.12.2-3.33.71-3.42.86-.58,1,5.92,1.94,5.28,3.06-.14.24-3.1,3.21-3.2,3.39-.42.74,3.83,1.26,3.42,2-.08.13-1.78,2.54-1.83,2.63-.65,1.13,9,3.52,8.26,4.79-.28.49-8.59-.78-8.81-.41-.6,1,20.74,10.22,20,11.57-.27.47-15.65-9.15-16.17-8.25-.93,1.61,12.1,5.48,11.44,6.63-.31.54-8.43-2.73-8.62-2.4-.54.94,16,6.91,15,8.7-.21.36-8.06-4.59-8.3-4.18-1.06,1.84,8.37,3.65,7.86,4.55-.33.57-17.71-8.38-18.22-7.48-.88,1.52,30.21,14.88,29.07,16.85-.49.85-13.6-5.83-13.92-5.27-1.16,2,21.2,10.29,20.34,11.79-.5.88-26.54-15.57-27.59-13.74-2,3.5,78.59,41.53,76.86,44.54s-62.64-35.59-64-33.23c-1.7,3,58.93,29.35,56.86,32.95-1.77,3.07-63.09-38.07-64.31-36-2.4,4.18,74.57,38.28,72.44,42C224.49,417.1,166,375.89,164,379.46c-2.21,3.84,54.24,26,51.91,30.08-1,1.79-47.33-26.65-48.3-25-2,3.55,33.62,15.38,31.85,18.46-.6,1-33.26-21.27-34.51-19.09-1.73,3,39,20.15,38,22-.63,1.1-18.12-8.59-18.59-7.78-.56,1,3.17.61,2.65,1.53" fill="none" stroke="#999" stroke-linecap="round" stroke-linejoin="round" stroke-width="1.16"/><path d="M301.42,233.68c-.64,1.11,27.35,14.08,26.59,15.41-.3.52-15.74-4.32-16.13-3.65-.86,1.49,15.91,8.23,15.49,9-.17.3-7.32.52-7.51.87-.79,1.37,7.66,3.4,7.21,4.18-.34.59-10.52-1.85-10.8-1.37-.37.65,18.74,9.43,18.12,10.5-.22.38-9.74-2-10.06-1.44s8.39,3.76,7.91,4.58c-.21.37-5.51,2.24-5.64,2.46-.39.67,9.76,4.61,9.31,5.39-.23.4-13.25-3.79-13.61-3.16-.54.94,12.51,6.62,12.24,7.09-.05.09-1.49,1-1.56,1.14-.32.57.7-.61.27.15,0,.08-2.73,1.23-2.84,1.41-.27.47,1.68.33,1.4.81-.12.21-4,.26-4.08.39-.5.87.62-.82.11.06,0,0-.23.57-.25.6-.31.53,5.44,2.52,5.16,3-.16.29-1.69,5.42-1.79,5.6-.5.88.76-.49.36.21-.14.24-6.18-2.24-6.33-2-.38.66,4.59,1.92,4.27,2.47-.2.35-5.54,2.25-5.64,2.42-.26.45,12.18,6.46,11.92,6.91s-6.62-.4-6.83,0c-.29.51,5.63,2.29,5.21,3-.26.45-9.63.47-9.9.94s9.76,4.66,9.33,5.41c-.24.41-12.69-3.8-13.09-3.1s14.78,7.83,14.47,8.38-14-4.53-14.3-4,2.33.38,1.92,1.11c0,.08.74,1.07.71,1.12-.26.46,7.66,3.93,7.44,4.31-.38.67-12.22-4.72-12.48-4.28-.47.81,14.76,7.75,14.41,8.35s-9.69-5.36-9.94-4.93,8.38,3.77,7.91,4.58c-.21.37-7.57.89-7.8,1.29s4.69,1.93,4.35,2.52c-.08.14-.78,3-.83,3.12-.42.73,2.84.6,2.39,1.38-.58,1-16.39-4.34-16.65-3.89s14.69,7.57,14.29,8.28-16.42-4.87-16.78-4.25,14.4,7.71,14.13,8.19-15.33-6.65-15.88-5.68c-.25.43,14.59,7.5,14.18,8.21s-14-8.69-14.46-7.89c-.32.56,14.52,7.71,14.22,8.24s-7.69-4.3-8-3.81,6.33,3.07,6.07,3.52-13.45-6.87-13.88-6.12,14.86,7.65,14.45,8.37-14.43-7.43-14.67-7c-.33.58,5.14,1.93,4.68,2.71-.23.4-7.93-.13-8.11.19-.35.6,14.6,8,14.38,8.33-.39.67-17.61-5.57-18.26-4.44-.43.74,15,8,14.69,8.51-.46.81-15.79-7.87-16.18-7.19-.26.45,15.09,8,14.76,8.56-.51.89-14.35-9.38-14.87-8.46s15.18,7.83,14.76,8.56c-.3.52-15.93-8-16.43-7.09s15,8.19,14.76,8.56c-.44.77-12.67-4.8-12.93-4.36-.36.62,7,3.48,6.75,3.91-.06.11-.47,2.84-.58,3-.44.76.52-.87,0,0-.23.41-10-.09-10.19.25-.4.69.56-.23.32.18-.13.22-6.07-2.06-6.24-1.77-.5.86,4.7,1.88,4.34,2.51-.22.38-7.54-.77-7.79-.34-.4.7,9.63,4.51,9.17,5.31-.2.34-8.42-4.77-8.62-4.43-.54.94,4.64,1.94,4.31,2.5-.22.37-7,1.13-7.15,1.39-.27.46,2.59.48,2.15,1.24-.23.4-9,.28-9.26.76-.45.78,9.47,4.7,9.13,5.29-.46.8-14.63-3-15.1-2.14-.29.51,2.86.24,2.25,1.3-.23.4-14.33-4.73-14.71-4s9.94,4.32,9.32,5.4c-.33.57-10.26-2.86-10.45-2.53-.52.91,15,7.07,14.28,8.27s-24.24-10.52-24.81-9.53c-.44.76,8,3.15,7.33,4.25-.07.11-2.9-.22-3-.12-.6,1,6.07,1.87,5.36,3.11-.34.59-13.87-7.31-14.29-6.58-.76,1.31,11.88,5.83,11.42,6.62s-16.62-8.1-17.14-7.2c-1,1.7,7.12,2.31,6.34,3.67-.59,1-27.69-14.86-28.26-13.88-1.13,2,38,19.3,36.86,21.36" fill="none" stroke="#999" stroke-linecap="round" stroke-linejoin="round" stroke-width="1.16"/><path d="M289,210.64c-.17.3.89,0,.69.4-.31.54-11.71-3.25-12-2.7-.9,1.56,34.75,17.17,33.47,19.4s-49.87-28.22-51.63-25.16c-1.31,2.28,61.44,29.78,58.93,34.15-2,3.55-66.34-40.87-68.93-36.38s74.53,39.55,73,42.28c-1.73,3-74.47-43.31-77.33-38.35-.53.93,11,4.37,10.16,5.89-.59,1-15.85-7.79-16.24-7.12-.59,1,16.62,8.26,16,9.29s-25.17-12.87-26-11.4c-.66,1.14,23.83,12.47,23.26,13.48s-14.07-8.5-14.43-7.87c-.72,1.25,9,3.87,8.4,4.87-.26.45-7.78-3.18-7.91-3-.42.72,3,.43,2.4,1.39s-16-4-16.36-3.29c-.63,1.1,13.35,6.11,12.65,7.33-.17.3-8.41-4.22-8.58-3.91-.6,1,3.18.38,2.55,1.48-.36.63-9.08-5.86-9.43-5.24-.49.85,6,2.7,5.65,3.27-.15.25-1,4.83-1.13,5.06-.44.77,3.33.71,2.81,1.63-.36.63-11.34-5.93-11.55-5.57-.6,1,3.3,1,2.91,1.69-.19.33-6.44-.23-6.64.11-.53.92,2.66.48,2.21,1.28-.29.51-11.12-3.66-11.48-3s11.63,5.95,11.29,6.54c-.2.35-9-4-9.14-3.72-.25.44,7,2.84,6.46,3.74-.4.7-12-5.52-12.26-5s3.84,1.21,3.4,2c-.26.45,8.24,6.41,8,6.91-.41.72,1.83.38,1.54.89s-10.76-3.69-10.93-3.38c-.3.53,1.24-.48.72.42-.27.47-10-3.67-10.15-3.37-.31.54,13,6.45,12.5,7.24s-11.28-4.19-11.63-3.59,7,3.23,6.64,3.85c-.21.37-9.35-1.58-9.52-1.29-.47.81,3,1,2.71,1.57-.14.24-5.61-2.67-5.78-2.39-.49.86,1.59.13,1.25.72-.07.12-2.23.52-2.29.64-.49.85,9.4,4.45,9,5.2s-14-3.45-14.38-2.8,15,8.13,14.76,8.55-17.64-6-18.22-5c-.33.58,14.72,7.88,14.44,8.37-.54.94-17-5.63-17.32-5.08s14.74,7.74,14.39,8.34c-.44.76-16.25-6.5-16.71-5.71-.31.54,14.89,7.56,14.43,8.36s-14.58-5.79-15-5.08,5.27,2.07,4.85,2.81c-.12.21-6.58-3-6.81-2.6s14.47,7.58,14.12,8.18c-.54.95-14.56-7.63-14.93-7-.27.48,14.46,7.53,14.09,8.17-.54.93-16.62-4.55-17.18-3.59-.36.63,14.75,7.45,14.28,8.27s-13.37-2.05-13.75-1.39,4.79,1.92,4.42,2.56c-.24.42-9.24-1.3-9.42-1s14.44,7.87,14.23,8.24c-.35.61-14.24-8.08-14.78-7.13-.21.36,14.75,7.49,14.3,8.28-.32.56-13.32-1.91-13.68-1.28s2.46.65,2.13,1.23c-.1.18-4.23-.82-4.37-.58-.43.74,7.41,3.44,7,4.08-.2.35-9.21-1.63-9.43-1.25s15,7.68,14.53,8.42-15-6.62-15.44-5.79c-.25.43,15,8.17,14.76,8.56-.32.55-10.9-4.39-11.3-3.69s8.85,4.38,8.53,4.94c-.18.31-7.82.23-8,.59-.48.84,2.14.14,1.66,1-.14.24-5.58.63-5.7.84-.27.48,10.42,5.11,10,5.81-.07.12-3,.35-3.09.44-.48.84.59-.19.36.21-.09.15-2.62,4-2.75,4.22-.23.4.74-.22.46.27-.08.14-4.52-1.26-4.64-1.06-.47.81,8.84,4.3,8.48,4.91-.14.24-2.41,4.4-2.52,4.59-.51.89,2.11.5,1.8,1-.2.35-7.06-4.73-7.35-4.21-.54.93,9.66,4.5,9.19,5.32-.18.32-6.82-2.74-6.94-2.52-.31.54,1-.34.63.37-.19.34-5.51.85-5.66,1.11-.53.91,3.07.64,2.58,1.5-.11.18-1.29,3.38-1.4,3.57-.53.93,11.06,5,10.46,6.06-.35.61-10.24-3.3-10.55-2.75s10.18,4.82,9.72,5.63c-.14.24-7-3.79-7.19-3.5-.37.65,8.24,4,7.91,4.58-.07.13-3.47.18-3.58.35-.45.78,10.28,4.54,9.67,5.6-.2.35-7.51,1.13-7.76,1.57-.63,1.09,6.95,2.68,6.37,3.69-.18.32-10.66-1.32-10.92-.86-.44.76,22.22,11.94,21.82,12.64C181,338.17,160.88,324,160.33,325s24.1,12.07,23.28,13.49c-.42.74-17.49-9.46-17.85-8.84-.68,1.18,6.56,1.95,5.76,3.34-.24.41,3,7.5,2.9,7.74-.72,1.25,22.83,11.18,21.95,12.72-.37.64-20.29-8.13-20.71-7.4-2.68,4.66,65.82,34.34,64.18,37.19-1.22,2.12-56.43-35.65-58.57-31.92-2,3.56,50.4,24.72,48.46,28.08-1.35,2.35-42.58-22.5-43.9-20.2-1.58,2.75,29.2,13.54,27.74,16.07-.72,1.25-19.45-12.24-20-11.35-1.19,2.07,26.3,12.47,25.11,14.55-.73,1.28-22.54-11.37-23.38-9.91-.21.36,10.53,5.79,10.4,6" fill="none" stroke="#999" stroke-linecap="round" stroke-linejoin="round" stroke-width="1.16"/><path d="M279,100.87s3.12,1.77,3.1,1.8c-.27.46-10.19-2.27-10.47-1.8-.16.27,10.72,5.69,10.49,6.08s-13.38-4-13.82-3.26c-.33.57,11.12,5,10.49,6.08s-19-9.06-19.68-7.84c-.79,1.37,20.26,10.67,19.8,11.47S255,104,254.11,105.49c-.47.82,7.79,2.73,7,4.07-.49.85-13.2-6.09-13.52-5.54-.59,1,16.59,8.25,16,9.27S237,99.5,236.15,101c-.73,1.28,26.4,13.8,25.76,14.92s-16.72-10.2-17.15-9.45c-.82,1.42,11.91,5.4,11.26,6.53-.38.67-11.32-5.38-11.51-5-.5.87,7.12,2.58,6.46,3.74-.81,1.4-23-8.5-23.61-7.49-.86,1.49,19.88,9.31,18.93,11-.32.55-15.22-8.52-15.55-7.95-.84,1.46,10.18,3.85,9.3,5.39-.63,1.09-15.71-10.31-16.33-9.24s12.9,6.41,12.44,7.21c-.3.52-10.29-.87-10.56-.41-.63,1.1,10.43,4.29,9.67,5.61-.3.52-9.53-4.81-9.71-4.51-.8,1.39,4.64,1.5,4.13,2.39-.34.59-11.24-3.39-11.6-2.76-.49.85,1.65,0,1.22.71-.18.3-6.92-.9-7.14-.52s4.8,2.36,4.62,2.68-6.11-2.22-6.22-2,7.55,4,7.37,4.27-7.19-2.47-7.35-2.19c0,0,3.84,2.13,3.8,2.2s-3.68-2-3.79-1.8c0,0,3.11,1.77,3.1,1.8" fill="none" stroke="#999" stroke-linecap="round" stroke-linejoin="round" stroke-width="1.16"/><path d="M383.87,141.55s3.12,1.77,3.1,1.8c-.27.46-10.19-2.27-10.47-1.8-.16.27,10.72,5.69,10.49,6.08s-13.38-4-13.82-3.26c-.33.57,11.12,5,10.49,6.08s-19-9.06-19.68-7.84,20.26,10.67,19.8,11.47-23.93-9.41-24.79-7.91c-.47.82,7.78,2.72,7,4.06-.49.85-13.19-6.08-13.5-5.53-.59,1,16.57,8.23,16,9.26S341.94,140.19,341,141.74c-.73,1.28,26.37,13.78,25.72,14.91s-16.69-10.18-17.12-9.43c-.82,1.42,11.88,5.38,11.23,6.51-.38.67-11.28-5.36-11.47-5-.5.87,7.08,2.56,6.42,3.72-.8,1.4-23-8.47-23.57-7.47-.86,1.49,19.82,9.28,18.87,10.93-.32.55-15.16-8.49-15.49-7.92-.84,1.45,10.12,3.82,9.24,5.35-.63,1.09-15.65-10.27-16.27-9.2s12.84,6.38,12.38,7.17c-.33.57-11.28-1.51-11.57-1-.66,1.15,11.46,4.81,10.67,6.18-.4.69-12.42-6.6-12.64-6.21-.92,1.59,7.65,3.07,7.06,4.09s-19.28-8.7-19.92-7.58c-.84,1.46,4,.65,3.31,1.92-.44.77-16.41-7.16-17-6.21-.69,1.2,21.22,11,20.65,12-.45.79-19.39-10.51-19.76-9.88s16.93,7.79,16.06,9.31-23-12.52-23.52-11.56,13.86,6.3,13.11,7.6c-.09.16-3.7-.09-3.8.1-.71,1.24,12,5.75,11.45,6.63-.63,1.09-27.59-14.15-28.07-13.31s10.94,4.21,10,5.81c-.48.83-17-8-17.3-7.52-.57,1,23.94,11.95,23.11,13.39s-24.39-12.8-25.17-11.44c-.5.88,18,8.92,17.35,10.05s-23.93-10.71-24.39-9.91c-.87,1.51,14.21,6.94,13.65,7.91-.44.76-17.2-10.2-17.71-9.31-.93,1.61,12.94,6,12.3,7.12-.5.86-14.91-7.79-15.4-7-.93,1.62,21.07,10.29,20.24,11.73s-24.34-10.15-25-9,5.46,2.07,5,2.89c-.23.39-14.08-3.68-14.54-2.9-.66,1.15,9.68,4.31,9.12,5.29-.35.61-11.36-2.11-11.57-1.75-.61,1.06,9.6,4,8.91,5.16-.52.91-19.19-8.42-19.74-7.47s9.34,3.3,8.43,4.88c-.72,1.25-21.24-10.12-21.85-9.05-.75,1.31,17.61,8.23,16.76,9.71-.31.54-15.84-9.16-16.42-8.17s12.51,5.6,11.8,6.84c-.55,1-14.81-7.8-15.19-7.15-.56,1,10.1,4.13,9.36,5.42-.53.92-16.38-4.4-16.93-3.44-.73,1.27,8.32,2.63,7.37,4.27-.8,1.39-21.67-7.46-22.31-6.35s17.33,8.28,16.57,9.6c-.42.73-15.48-5.24-15.8-4.68-.42.73,7.49,3.34,7.06,4.09-.26.45-10.61-5.64-11-4.95s12.35,5,11.44,6.63c-.75,1.31-29.5-12.4-30.34-10.94-.55,1,14.7,7,14,8.13-.5.86-18.4-10.26-19.07-9.1-.86,1.5,19.75,9.71,19,11-.45.79-19.4-8.16-19.89-7.31s11.92,5,11.08,6.42c-.27.46-11.42-4.28-11.77-3.67-.47.82,6.8,2.94,6.37,3.69-.57,1-18.81-9.71-19.53-8.46s20.58,10.48,20,11.57-26.78-12.06-27.55-10.72c-.93,1.61,13.91,5.94,13,7.53-.61,1.06-22.91-10.35-23.44-9.43s21.66,10.83,20.92,12.12c-.42.73-17.16-8.42-17.46-7.89-.88,1.53,11.47,5.68,11.05,6.4s-22.45-8.69-23.09-7.57c-.41.72,11.62,5.54,11.1,6.43-.34.58-17.5-9.65-18-8.79-.84,1.46,19.54,9.85,18.91,11s-22.58-8.22-23.09-7.33c-.86,1.5,12,5.75,11.51,6.67s-16.46-11.09-17.15-9.89c-.91,1.58,19.7,9.56,18.9,11-.52.9-18.37-10-18.73-9.35-.51.89,10.39,4.48,9.72,5.63-.52.91-14.63-5-15-4.32-.55,1,3.91,1.06,3.39,2-.11.18-2.37,2.75-2.48,2.94-.27.48,3.28,1.19,3,1.72-.16.27-4.66.34-4.8.58,0,.07,4.64,2.55,4.58,2.66s-4.47-2.17-4.58-2,3.44,2,3.42,2-3.31-2-3.42-1.8c0,0,3.12,1.76,3.1,1.8" fill="none" stroke="#999" stroke-linecap="round" stroke-linejoin="round" stroke-width="1.16"/><path d="M77.92,131.14c-.25.44,6.14,2.86,5.84,3.38-.18.31-9.7-.46-9.93-.06-.49.85,5.64,2.7,5.39,3.13-.11.19-3.4,3-3.53,3.18-.54.94,1.3,0,1,.57s-8-.2-8.16.16,14.13,7.11,13.67,7.92C81.86,150,67.45,144.11,67,145s12.69,6,12.1,7c-.81,1.4-21.54-7.87-22-7-.59,1,18,8.86,17.34,10-.55,1-29.94-14.65-30.82-13.13S65,153.29,64.55,154,52.85,147,52.38,147.8s10.06,4.16,9.34,5.41" fill="none" stroke="#999" stroke-linecap="round" stroke-linejoin="round" stroke-width="1.16"/><path d="M81,111.44s3.11,1.77,3.1,1.8c-.27.46-10.19-2.27-10.46-1.8-.16.27,10.7,5.68,10.47,6.07s-13.36-4-13.8-3.24c-.33.57,11.08,5,10.45,6.06s-18.94-9-19.64-7.82,20.21,10.64,19.74,11.44S57,114.57,56.17,116.06c-.67,1.16,18,7.9,16.91,9.8-.87,1.51-22.84-12.25-23.4-11.27s16.26,8.07,15.68,9.08-26.26-13.59-27.14-12.06c-.73,1.26,26.13,13.66,25.49,14.77s-16.46-10-16.89-9.29c-.81,1.41,11.64,5.26,11,6.37-.38.65-11.06-5.22-11.24-4.89-.5.87,6.88,2.46,6.22,3.6s-19-5.91-19.46-5.09c-.71,1.24,15.67,7.25,14.88,8.62-.19.34-9.46-4.89-9.67-4.54-.63,1.1,4.1.83,3.43,2-.39.67-9.7-6.27-10.08-5.62-.51.88,6.53,3,6.19,3.59s4.74,7.9,4.5,8.32c-.38.66,1.13-.4.68.39-.25.44-8.06-3.89-8.21-3.64-.53.92,1.34,0,1,.58-.1.17-.89,3.2-1,3.39-.48.84,1.43-.15,1,.59-.17.3-6.73-.77-6.94-.41-.4.69,11,5.61,10.66,6.18-.15.27-6.92-2.73-7-2.51-.25.43,6.57,2.64,6.07,3.52-.32.56-9.73-4.09-10-3.7s3.55,1.06,3.12,1.81c-.32.55,10.52,7.57,10.16,8.19-1,1.79,22.78,11.49,22,12.77s-33-17.49-33.55-16.48,16.65,7,15.52,9c-.51.89-18.14-8.76-18.46-8.19C27.1,142,52.87,153.48,52,155c-.7,1.21-20.26-10.09-20.91-9-.41.72,13.65,6.67,13.11,7.6-.3.51-12.61-3.62-12.84-3.21-.45.78,2.42.74,2.14,1.24-.14.24-5.71-2.73-5.88-2.45-.41.71,13.26,7,13,7.52s-11-5.21-11.34-4.6,3.94,1.71,3.69,2.14c-.15.27-5.16.46-5.3.7,0,0,3.11,1.77,3.1,1.79" fill="none" stroke="#999" stroke-linecap="round" stroke-linejoin="round" stroke-width="1.16"/><path d="M425,187.69s3.11,1.77,3.1,1.8c-.27.46-10.19-2.27-10.46-1.8-.16.27,10.7,5.68,10.48,6.07s-11-2.44-11.35-1.83,8.54,3.71,8,4.64c-.3.52-10.66-3.49-11-2.83-.48.84,11.43,6,11.15,6.46-.13.22-5.2,3-5.41,3.32s1.58-.12,1.13.66c-.11.19-3.16.3-3.23.42-.34.59,6.48,3,6.13,3.55s-10.91-3.45-11.25-2.85,16.25,8.54,15.87,9.2c-.22.38-6.26-3.5-6.42-3.23-.48.83,1.75.14,1.38.8-.11.19-3.53-.55-3.59-.46-.29.51,1.52,0,1.13.66-.17.3-2.69,4.34-2.81,4.56-.3.53,4,1.54,3.67,2.12-.19.33-9.32-4.8-9.52-4.46s9.33,4.84,9.08,5.26c-.35.61-8.74-5.63-9.08-5-.18.31,8.82,4.83,8.7,5-.25.44-8.47-2.15-8.69-1.76,0,0,3.11,1.76,3.09,1.79" fill="none" stroke="#999" stroke-linecap="round" stroke-linejoin="round" stroke-width="1.16"/><path d="M501.7,453.19c2.9-2.49-504.39,1.94-498.64-5.81-.22-.61-6.55-303.07,4.59-311.32-7.29-.79,94.92-1.88,99.87.12-9.16,9.49,33.62-76.4,41.19-69.12-2-15.62,203.12-11,204-6.7-5.56-4.68,42.61,76.69,32.69,84.46,2.29-9.08,116.49-7.4,111.6-5.12C509.59,144,503.77,446.09,501.7,453.19ZM20.08,438.95c-6.71-2.32,468.81,1.8,464.79-5.4,9.25-.57,3.27-275.51,4.34-283.28,2.56-.61-105-1.63-105.7.11-3.24,8.92-42.46-76.7-39.14-69.94,1.91-14.51-192.46-10.23-187.73-6.22-9.1-4.35-43.23,77.08-47.17,84.18-3.26-8.31-98.62-6.75-93.78-4.75C18.07,157.8,12.58,432.36,20.08,438.95Z" fill="none" stroke="#666" stroke-width="2.91"/><path d="M246.33,419.29c-69.64-1.54-126.46-54.77-123.63-126.07-.14-71.7,52.62-124.08,124.22-128.21,67.51-1.56,124.58,53.78,123.05,122.51C369.47,363.77,313.53,414.86,246.33,419.29Zm0-231.7c-61.86-5.76-112.31,46.49-109.8,105.5-.12,58.65,46.73,111.66,110.33,103.59,60,3,110.65-47.36,109.29-108.65C355.69,233.42,306,179.26,246.33,187.59Z" fill="none" stroke="#666" stroke-width="2.91"/><path d="M246.33,387.07c-52-1.15-94.45-40.9-92.34-94.16-.11-53.55,39.3-92.66,92.78-95.76,50.42-1.16,93,40.17,91.9,91.5C338.3,345.61,296.52,383.76,246.33,387.07Zm0-169.72c-44.23-4.12-80.3,33.25-78.51,75.43-.09,41.93,33.41,79.84,78.88,74.07,42.87,2.15,79.11-33.87,78.14-77.69C324.52,250.12,289,211.39,246.33,217.35Z" fill="none" stroke="#666" stroke-width="2.91"/><path d="M280.81,115.09c.94.56-69.73.3-68.72,0-1.16,0,0-13.93,0-13.43-1.2-.49,69-.08,69.09,0C281.17,101.19,280.93,115.45,280.81,115.09Z" fill="none" stroke="#666" stroke-width="2.91"/><path d="M386.9,156.11c2.89-.28-280.69-.12-276.33-.24-7,.11-2.93-13.89-4.15-13.55-3-.38,278.11-.32,275.39-.18C388.81,142.23,386.71,156.12,386.9,156.11Z" fill="none" stroke="#666" stroke-width="2.91"/><path d="M82.77,156.68c.32-.28-54.77.22-54.15-.66,0-.07-.71-43.88.5-44.64-.79-.27,54.36-.4,54,0C83,112.29,83,155.87,82.77,156.68ZM42.64,142.44c-.38-.11,26.53.08,26.31-.25.52,0,.18-16.32.25-16.6.15-.1-26.74-.15-26.37,0C42.23,125.93,42.22,142.14,42.64,142.44Z" fill="none" stroke="#666" stroke-width="2.91"/><path d="M426.87,219.53c.08-.2-13.9.15-13.74-.46,0,0-.18-30.63.13-31.16-.2-.19,13.79-.28,13.71,0C426.93,188.55,426.92,219,426.87,219.53Z" fill="none" stroke="#666" stroke-width="2.91"/><path d="M510.38,446.92c-1.39,2-508.82-1.54-509.2.66-1.76-5.94,14.52-307.45,0-304.61-2.34-2.71,101.2,3.05,108.91,0C103,139.87,140.74,60.48,147,55.36c-3.83,7.5,192.83,5.8,194.18,2-.35,2,50.42,87.7,53.46,81.39-11.88.93,112.57,7.2,110.64.67C497.22,144.26,497.15,446.09,510.38,446.92ZM18.83,433.13c8.14,1.86,464.63-1.43,473.72.61-11.11-5.51,4.26-279.69,0-276.94-11.66-2.63-113.9,2.72-101.21,0-12.19-3-54.54-82.47-44.84-87.22-7.45,7-202.16,5.39-204.73,1.87,3.52,1.85-26.56,87.19-29.12,81.44-5.8.75-87.43,6.56-98.71.63C15.84,157.88,15.77,432.35,18.83,433.13Z" fill="none" stroke="#4c4c4c" stroke-width="2.18"/><path d="M248.15,415.36c-65.49,1.28-126.2-55.9-126.39-124.46-.87-68.84,61.88-123.35,124.48-122.58,63.65-.69,121.26,57.92,129,124.91C367.75,357.31,311.35,414.82,248.15,415.36Zm-.2-235.65C189.78,185.24,135.86,232,135.69,291c-.77,58.77,55,107.91,110.55,113,56.52-5,107.69-50.5,114.58-110.92C354.16,230.1,304.08,183.62,247.94,179.7Z" fill="none" stroke="#4c4c4c" stroke-width="2.18"/><path d="M247.69,384.13c-48.91,1-94.26-41.75-94.4-93-.65-51.41,46.22-92.12,93-91.54,47.53-.52,90.56,43.26,96.36,93.29C337,340.78,294.89,383.74,247.69,384.13Zm-.2-172.42c-41.59,4-80.14,37.4-80.26,79.59-.55,42,39.29,77.16,79,80.79,40.41-3.58,77-36.12,81.92-79.31C323.43,247.75,287.62,214.51,247.48,211.71Z" fill="none" stroke="#4c4c4c" stroke-width="2.18"/><path d="M281.18,115.53c.41-.36-68.18-.21-68.93-.13-1.54-.05,1.13-13.69-.81-14,.93.17,68.26.14,69.64,0C281.52,101.67,279.68,115.24,281.18,115.53Z" fill="none" stroke="#4c4c4c" stroke-width="2.18"/><path d="M389.95,156c-6.16,0-286.61-.07-289.7.07,3.66-.21,9.59-13.71,7-14-2.32.09,280.24.32,279.16,0C381.91,142.3,382.46,155.87,389.95,156Z" fill="none" stroke="#4c4c4c" stroke-width="2.18"/><path d="M83.72,156c-.15.23-55.25-.18-55.3.07-.19-.68,1.58-44.2,0-44.06-.25-.12,54.17.53,55.88,0C82.65,111.82,82.28,155.87,83.72,156ZM42.57,142.18c.46.09,26.3-.07,26.81,0-.63-.25.24-16.44,0-16.39-.66,0-26.83.2-26.53,0C42.58,125.75,42.4,142.14,42.57,142.18Z" fill="none" stroke="#4c4c4c" stroke-width="2.18"/><path d="M427.11,219c0,.16-14-.12-14,.05,0-.47.4-30.85,0-30.75-.06-.09,13.74.37,14.18,0C426.84,188.21,426.74,219,427.11,219Z" fill="none" stroke="#4c4c4c" stroke-width="2.18"/></svg>